0
SECTION
2
HEADER
9
$INSUNITS
70
4
9
$ACADVER
1
AC1014
9
$HANDSEED
5
FFFF
0
ENDSEC
0
SECTION
2
TABLES
0
TABLE
2
VPORT
5
8
100
AcDbSymbolTable
0
ENDTAB
0
TABLE
2
LTYPE
5
5
100
AcDbSymbolTable
0
LTYPE
5
14
100
AcDbSymbolTableRecord
100
AcDbLinetypeTableRecord
2
BYBLOCK
70
0
0
LTYPE
5
15
100
AcDbSymbolTableRecord
100
AcDbLinetypeTableRecord
2
BYLAYER
70
0
0
ENDTAB
0
TABLE
2
LAYER
5
2
100
AcDbSymbolTable
70
2
0
LAYER
5
50
100
AcDbSymbolTableRecord
100
AcDbLayerTableRecord
2
0
70
0
6
CONTINUOUS
0
ENDTAB
0
TABLE
2
STYLE
5
3
100
AcDbSymbolTable
70
1
0
STYLE
5
11
100
AcDbSymbolTableRecord
100
AcDbTextStyleTableRecord
2
STANDARD
70
0
0
ENDTAB
0
TABLE
2
VIEW
5
6
100
AcDbSymbolTable
70
0
0
ENDTAB
0
TABLE
2
UCS
5
7
100
AcDbSymbolTable
70
0
0
ENDTAB
0
TABLE
2
APPID
5
9
100
AcDbSymbolTable
70
2
0
APPID
5
12
100
AcDbSymbolTableRecord
100
AcDbRegAppTableRecord
2
ACAD
70
0
0
ENDTAB
0
TABLE
2
DIMSTYLE
5
A
100
AcDbSymbolTable
70
1
0
ENDTAB
0
TABLE
2
BLOCK_RECORD
5
1
100
AcDbSymbolTable
70
1
0
BLOCK_RECORD
5
1F
100
AcDbSymbolTableRecord
100
AcDbBlockTableRecord
2
*MODEL_SPACE
0
BLOCK_RECORD
5
1B
100
AcDbSymbolTableRecord
100
AcDbBlockTableRecord
2
*PAPER_SPACE
0
ENDTAB
0
ENDSEC
0
SECTION
2
BLOCKS
0
BLOCK
5
20
100
AcDbEntity
100
AcDbBlockBegin
2
*MODEL_SPACE
0
ENDBLK
5
21
100
AcDbEntity
100
AcDbBlockEnd
0
BLOCK
5
1C
100
AcDbEntity
100
AcDbBlockBegin
2
*PAPER_SPACE
0
ENDBLK
5
1D
100
AcDbEntity
100
AcDbBlockEnd
0
ENDSEC
0
SECTION
2
ENTITIES
0
LWPOLYLINE
5
100
100
AcDbEntity
8
0
100
AcDbPolyline
90
40
70
1
43
0.0
10
-31.750000000000004
20
31.750000000000004
42
0.41421356237309503
10
-29.368750000000002
20
34.131250000000001
10
-29.368750000000002
20
105.56874999999999
42
0.41421356237309503
10
-31.750000000000004
20
107.95
10
-36.512500000000003
20
107.95000000000002
42
-0.99999999999999989
10
-41.274999999999991
20
107.95000000000002
10
-46.037500000000009
20
107.95000000000002
42
0.41421356237309503
10
-48.41875000000001
20
105.56874999999999
10
-48.418750000000003
20
91.28125
42
-0.41421356237309503
10
-50.799999999999997
20
88.900000000000006
10
-60.325000000000003
20
88.900000000000006
42
-0.41421356237309503
10
-62.706250000000011
20
91.28125
10
-62.706249999999997
20
105.56874999999999
42
0.41421356237309503
10
-65.087500000000006
20
107.95
10
-79.375
20
107.95000000000002
42
-0.99999999999999989
10
-84.137500000000003
20
107.95000000000002
10
-231.77500000000003
20
107.95000000000002
42
-0.99999999999999989
10
-236.53750000000002
20
107.95000000000002
10
-250.82499999999999
20
107.95000000000002
42
0.41421356237309503
10
-253.20625000000001
20
105.56874999999999
10
-253.20625000000004
20
91.28125
42
-0.41421356237309503
10
-255.58750000000003
20
88.900000000000006
10
-265.11250000000007
20
88.900000000000006
42
-0.41421356237309503
10
-267.49375000000003
20
91.28125
10
-267.49374999999998
20
105.56874999999999
42
0.41421356237309503
10
-269.875
20
107.95
10
-274.63749999999999
20
107.95000000000002
42
-0.99999999999999989
10
-279.40000000000003
20
107.95000000000002
10
-284.16250000000002
20
107.95000000000002
42
0.41421356237309503
10
-286.54375000000005
20
105.56874999999999
10
-286.54375000000005
20
34.131250000000009
42
0.41421356237309559
10
-284.16250000000002
20
31.750000000000004
10
-269.875
20
31.750000000000004
42
-0.99999999999999989
10
-265.11250000000001
20
31.750000000000004
10
-156.36875000000001
20
31.750000000000004
10
-155.57500000000002
20
31.750000000000004
42
-0.99999999999999989
10
-150.8125
20
31.750000000000004
10
-150.01875000000001
20
31.750000000000004
10
-50.800000000000011
20
31.750000000000004
42
-0.99999999999999989
10
-46.037500000000009
20
31.750000000000004
0
LWPOLYLINE
5
101
100
AcDbEntity
8
0
100
AcDbPolyline
90
40
70
1
43
0.0
10
-31.750000000000004
20
31.750000000000004
42
0.41421356237309503
10
-29.368750000000002
20
34.131250000000001
10
-29.368750000000002
20
105.56874999999999
42
0.41421356237309503
10
-31.750000000000004
20
107.95
10
-36.512500000000003
20
107.95000000000002
42
-0.99999999999999989
10
-41.274999999999991
20
107.95000000000002
10
-46.037500000000009
20
107.95000000000002
42
0.41421356237309503
10
-48.41875000000001
20
105.56874999999999
10
-48.418750000000003
20
91.28125
42
-0.41421356237309503
10
-50.799999999999997
20
88.900000000000006
10
-60.325000000000003
20
88.900000000000006
42
-0.41421356237309503
10
-62.706250000000011
20
91.28125
10
-62.706249999999997
20
105.56874999999999
42
0.41421356237309503
10
-65.087500000000006
20
107.95
10
-79.375
20
107.95000000000002
42
-0.99999999999999989
10
-84.137500000000003
20
107.95000000000002
10
-231.77500000000003
20
107.95000000000002
42
-0.99999999999999989
10
-236.53750000000002
20
107.95000000000002
10
-250.82499999999999
20
107.95000000000002
42
0.41421356237309503
10
-253.20625000000001
20
105.56874999999999
10
-253.20625000000004
20
91.28125
42
-0.41421356237309503
10
-255.58750000000003
20
88.900000000000006
10
-265.11250000000007
20
88.900000000000006
42
-0.41421356237309503
10
-267.49375000000003
20
91.28125
10
-267.49374999999998
20
105.56874999999999
42
0.41421356237309503
10
-269.875
20
107.95
10
-274.63749999999999
20
107.95000000000002
42
-0.99999999999999989
10
-279.40000000000003
20
107.95000000000002
10
-284.16250000000002
20
107.95000000000002
42
0.41421356237309503
10
-286.54375000000005
20
105.56874999999999
10
-286.54375000000005
20
34.131250000000009
42
0.41421356237309559
10
-284.16250000000002
20
31.750000000000004
10
-269.875
20
31.750000000000004
42
-0.99999999999999989
10
-265.11250000000001
20
31.750000000000004
10
-156.36875000000001
20
31.750000000000004
10
-155.57500000000002
20
31.750000000000004
42
-0.99999999999999989
10
-150.8125
20
31.750000000000004
10
-150.01875000000001
20
31.750000000000004
10
-50.800000000000011
20
31.750000000000004
42
-0.99999999999999989
10
-46.037500000000009
20
31.750000000000004
0
ENDSEC
0
SECTION
2
OBJECTS
0
DICTIONARY
5
C
100
AcDbDictionary
3
ACAD_GROUP
350
D
3
ACAD_MLINESTYLE
350
17
0
DICTIONARY
5
D
100
AcDbDictionary
0
DICTIONARY
5
1A
330
C
100
AcDbDictionary
0
DICTIONARY
5
17
100
AcDbDictionary
0
ENDSEC
0
EOF
